ffmpeg started on 2026-01-14 at 14:07:47
Report written to "D:\Convert\FFMetrics\reports\ssim_report-6.txt"
Log level: 32
Command line:
ffmpeg -hide_banner -nostdin -r 24000/1001 -i "F:\\Convert\\files\\[DC] Make Heroine ga Oosugiru - 07_Telegram_HEVC(131).mkv" -r 24000/1001 -i "F:\\Convert\\files\\[DC] Make Heroine ga Oosugiru - 07_Telegram.mp4" -lavfi "[0:v]settb=AVTB,setpts=PTS-STARTPTS,format=pix_fmts=yuv420p10le,fps=24000/1001,scale=1920:1080:flags=lanczos:param0=3:out_range=limited:out_color_matrix=bt709:out_chroma_loc=left,setsar=1/1,setdar=(1920/1080)*(1/1),colorspace=format=yuv420p10:range=tv:primaries=bt709:trc=bt709:space=bt709:fast=0[main];[1:v]settb=AVTB,setpts=PTS-STARTPTS,format=pix_fmts=yuv420p,fps=24000/1001,scale=1920:1080:flags=lanczos:param0=3:out_range=limited:out_color_matrix=bt709:out_chroma_loc=left,setsar=1.000,setdar=1.778,colorspace=format=yuv420p:range=tv:primaries=bt709:trc=bt709:space=bt709:fast=0[ref];[main][ref]ssim=eof_action=endall:stats_file='D\\:/Convert/FFMetrics/logs/ssim_logfile-6.txt'" -f null -
Input #0, matroska,webm, from 'F:\Convert\files\[DC] Make Heroine ga Oosugiru - 07_Telegram_HEVC(131).mkv':
  Metadata:
    COMPATIBLE_BRANDS: isomiso2avc1mp41
    MAJOR_BRAND     : isom
    MINOR_VERSION   : 512
    ENCODER         : Lavf61.7.100
  Duration: 00:24:06.79, start: -0.021000, bitrate: 968 kb/s
  Stream #0:0: Video: hevc (Main 10), yuv420p10le(tv, bt709, progressive), 1920x1080 [SAR 1:1 DAR 16:9], 23.98 fps, 23.98 tbr, 1k tbn (default)
      Metadata:
        HANDLER_NAME    : VideoHandler
        VENDOR_ID       : [0][0][0][0]
        ENCODER         : Lavc61.19.100 libx265
        BPS             : 771719
        DURATION        : 00:24:06.569708333
        NUMBER_OF_FRAMES: 34683
        NUMBER_OF_BYTES : 139543166
        _STATISTICS_WRITING_APP: mkvpropedit v94.0 ('Initiate') 64-bit
        _STATISTICS_WRITING_DATE_UTC: 2026-01-14 09:12:45
        _STATISTICS_TAGS: BPS DURATION NUMBER_OF_FRAMES NUMBER_OF_BYTES
  Stream #0:1: Audio: aac (LC), 48000 Hz, stereo, fltp (default)
      Metadata:
        HANDLER_NAME    : SoundHandler
        VENDOR_ID       : [0][0][0][0]
        ENCODER         : Lavc61.19.100 aac
        BPS             : 193194
        DURATION        : 00:24:06.784000000
        NUMBER_OF_FRAMES: 67819
        NUMBER_OF_BYTES : 34938755
        _STATISTICS_WRITING_APP: mkvpropedit v94.0 ('Initiate') 64-bit
        _STATISTICS_WRITING_DATE_UTC: 2026-01-14 09:12:45
        _STATISTICS_TAGS: BPS DURATION NUMBER_OF_FRAMES NUMBER_OF_BYTES
Input #1, mov,mp4,m4a,3gp,3g2,mj2, from 'F:\Convert\files\[DC] Make Heroine ga Oosugiru - 07_Telegram.mp4':
  Metadata:
    major_brand     : isom
    minor_version   : 512
    compatible_brands: isomiso2avc1mp41
    encoder         : Lavf60.16.100
  Duration: 00:24:06.74, start: 0.000000, bitrate: 3764 kb/s
  Stream #1:0[0x1](und): Video: h264 (High) (avc1 / 0x31637661), yuv420p(tv, bt709, progressive), 1920x1080 [SAR 1:1 DAR 16:9], 3616 kb/s, 23.98 fps, 23.98 tbr, 24k tbn (default)
      Metadata:
        handler_name    : VideoHandler
        vendor_id       : [0][0][0][0]
        encoder         : Lavc60.31.102 h264_qsv
  Stream #1:1[0x2](und): Audio: aac (HE-AACv2) (mp4a / 0x6134706D), 48000 Hz, stereo, fltp, 144 kb/s (default)
      Metadata:
        handler_name    : SoundHandler
        vendor_id       : [0][0][0][0]
Stream mapping:
  Stream #0:0 (hevc) -> settb:default
  Stream #1:0 (h264) -> settb:default
  ssim:default -> Stream #0:0 (wrapped_avframe)
  Stream #0:1 -> #0:1 (aac (native) -> pcm_s16le (native))
Output #0, null, to 'pipe:':
  Metadata:
    COMPATIBLE_BRANDS: isomiso2avc1mp41
    MAJOR_BRAND     : isom
    MINOR_VERSION   : 512
    encoder         : Lavf61.7.100
  Stream #0:0: Video: wrapped_avframe, yuv420p10le(tv, bt709, progressive), 1920x1080 [SAR 1:1 DAR 16:9], q=2-31, 200 kb/s, 23.98 fps, 23.98 tbn
      Metadata:
        encoder         : Lavc61.19.100 wrapped_avframe
  Stream #0:1: Audio: pcm_s16le, 48000 Hz, stereo, s16, 1536 kb/s (default)
      Metadata:
        HANDLER_NAME    : SoundHandler
        VENDOR_ID       : [0][0][0][0]
        _STATISTICS_TAGS: BPS DURATION NUMBER_OF_FRAMES NUMBER_OF_BYTES
        BPS             : 193194
        DURATION        : 00:24:06.784000000
        NUMBER_OF_FRAMES: 67819
        NUMBER_OF_BYTES : 34938755
        _STATISTICS_WRITING_APP: mkvpropedit v94.0 ('Initiate') 64-bit
        _STATISTICS_WRITING_DATE_UTC: 2026-01-14 09:12:45
        encoder         : Lavc61.19.100 pcm_s16le
frame=  131 fps=0.0 q=-0.0 size=N/A time=00:00:05.46 bitrate=N/A speed=10.5x    frame=  313 fps=299 q=-0.0 size=N/A time=00:00:13.05 bitrate=N/A speed=12.5x    frame=  495 fps=318 q=-0.0 size=N/A time=00:00:20.64 bitrate=N/A speed=13.3x    frame=  669 fps=324 q=-0.0 size=N/A time=00:00:27.90 bitrate=N/A speed=13.5x    frame=  838 fps=323 q=-0.0 size=N/A time=00:00:34.95 bitrate=N/A speed=13.5x    frame=  963 fps=311 q=-0.0 size=N/A time=00:00:40.16 bitrate=N/A speed=  13x    frame= 1112 fps=308 q=-0.0 size=N/A time=00:00:46.37 bitrate=N/A speed=12.8x    frame= 1271 fps=307 q=-0.0 size=N/A time=00:00:53.01 bitrate=N/A speed=12.8x    frame= 1423 fps=306 q=-0.0 size=N/A time=00:00:59.35 bitrate=N/A speed=12.8x    frame= 1555 fps=302 q=-0.0 size=N/A time=00:01:04.85 bitrate=N/A speed=12.6x    frame= 1702 fps=300 q=-0.0 size=N/A time=00:01:10.98 bitrate=N/A speed=12.5x    frame= 1856 fps=300 q=-0.0 size=N/A time=00:01:17.41 bitrate=N/A speed=12.5x    frame= 2015 fps=300 q=-0.0 size=N/A time=00:01:24.04 bitrate=N/A speed=12.5x    frame= 2108 fps=292 q=-0.0 size=N/A time=00:01:27.92 bitrate=N/A speed=12.2x    frame= 2261 fps=292 q=-0.0 size=N/A time=00:01:34.30 bitrate=N/A speed=12.2x    frame= 2395 fps=290 q=-0.0 size=N/A time=00:01:39.89 bitrate=N/A speed=12.1x    frame= 2512 fps=286 q=-0.0 size=N/A time=00:01:44.77 bitrate=N/A speed=11.9x    frame= 2654 fps=286 q=-0.0 size=N/A time=00:01:50.69 bitrate=N/A speed=11.9x    frame= 2828 fps=288 q=-0.0 size=N/A time=00:01:57.95 bitrate=N/A speed=  12x    frame= 2990 fps=290 q=-0.0 size=N/A time=00:02:04.70 bitrate=N/A speed=12.1x    frame= 3177 fps=293 q=-0.0 size=N/A time=00:02:12.50 bitrate=N/A speed=12.2x    frame= 3362 fps=296 q=-0.0 size=N/A time=00:02:20.22 bitrate=N/A speed=12.4x    frame= 3546 fps=299 q=-0.0 size=N/A time=00:02:27.89 bitrate=N/A speed=12.5x    frame= 3738 fps=302 q=-0.0 size=N/A time=00:02:35.90 bitrate=N/A speed=12.6x    frame= 3924 fps=304 q=-0.0 size=N/A time=00:02:43.66 bitrate=N/A speed=12.7x    frame= 4088 fps=305 q=-0.0 size=N/A time=00:02:50.50 bitrate=N/A speed=12.7x    frame= 4274 fps=307 q=-0.0 size=N/A time=00:02:58.26 bitrate=N/A speed=12.8x    frame= 4416 fps=306 q=-0.0 size=N/A time=00:03:04.18 bitrate=N/A speed=12.8x    frame= 4587 fps=307 q=-0.0 size=N/A time=00:03:11.31 bitrate=N/A speed=12.8x    frame= 4756 fps=307 q=-0.0 size=N/A time=00:03:18.36 bitrate=N/A speed=12.8x    frame= 4912 fps=307 q=-0.0 size=N/A time=00:03:24.87 bitrate=N/A speed=12.8x    frame= 5094 fps=308 q=-0.0 size=N/A time=00:03:32.46 bitrate=N/A speed=12.9x    frame= 5266 fps=309 q=-0.0 size=N/A time=00:03:39.63 bitrate=N/A speed=12.9x    frame= 5455 fps=311 q=-0.0 size=N/A time=00:03:47.51 bitrate=N/A speed=  13x    frame= 5640 fps=312 q=-0.0 size=N/A time=00:03:55.23 bitrate=N/A speed=  13x    frame= 5795 fps=311 q=-0.0 size=N/A time=00:04:01.69 bitrate=N/A speed=  13x    frame= 5965 fps=312 q=-0.0 size=N/A time=00:04:08.79 bitrate=N/A speed=  13x    frame= 6136 fps=313 q=-0.0 size=N/A time=00:04:15.92 bitrate=N/A speed=  13x    frame= 6323 fps=314 q=-0.0 size=N/A time=00:04:23.72 bitrate=N/A speed=13.1x    frame= 6499 fps=315 q=-0.0 size=N/A time=00:04:31.06 bitrate=N/A speed=13.1x    frame= 6660 fps=314 q=-0.0 size=N/A time=00:04:37.77 bitrate=N/A speed=13.1x    frame= 6829 fps=315 q=-0.0 size=N/A time=00:04:44.82 bitrate=N/A speed=13.1x    frame= 6998 fps=315 q=-0.0 size=N/A time=00:04:51.87 bitrate=N/A speed=13.1x    frame= 7173 fps=316 q=-0.0 size=N/A time=00:04:59.17 bitrate=N/A speed=13.2x    frame= 7360 fps=317 q=-0.0 size=N/A time=00:05:06.97 bitrate=N/A speed=13.2x    frame= 7522 fps=317 q=-0.0 size=N/A time=00:05:13.73 bitrate=N/A speed=13.2x    frame= 7671 fps=316 q=-0.0 size=N/A time=00:05:19.94 bitrate=N/A speed=13.2x    frame= 7838 fps=316 q=-0.0 size=N/A time=00:05:26.90 bitrate=N/A speed=13.2x    frame= 8021 fps=317 q=-0.0 size=N/A time=00:05:34.54 bitrate=N/A speed=13.2x    frame= 8196 fps=317 q=-0.0 size=N/A time=00:05:41.84 bitrate=N/A speed=13.2x    frame= 8368 fps=317 q=-0.0 size=N/A time=00:05:49.01 bitrate=N/A speed=13.2x    frame= 8513 fps=317 q=-0.0 size=N/A time=00:05:55.06 bitrate=N/A speed=13.2x    frame= 8701 fps=318 q=-0.0 size=N/A time=00:06:02.90 bitrate=N/A speed=13.3x    frame= 8855 fps=317 q=-0.0 size=N/A time=00:06:09.32 bitrate=N/A speed=13.2x    frame= 9007 fps=317 q=-0.0 size=N/A time=00:06:15.66 bitrate=N/A speed=13.2x    frame= 9201 fps=318 q=-0.0 size=N/A time=00:06:23.75 bitrate=N/A speed=13.3x    frame= 9335 fps=317 q=-0.0 size=N/A time=00:06:29.34 bitrate=N/A speed=13.2x    frame= 9494 fps=317 q=-0.0 size=N/A time=00:06:35.97 bitrate=N/A speed=13.2x    frame= 9660 fps=317 q=-0.0 size=N/A time=00:06:42.90 bitrate=N/A speed=13.2x    frame= 9828 fps=317 q=-0.0 size=N/A time=00:06:49.90 bitrate=N/A speed=13.2x    frame=10004 fps=318 q=-0.0 size=N/A time=00:06:57.25 bitrate=N/A speed=13.2x    frame=10179 fps=318 q=-0.0 size=N/A time=00:07:04.54 bitrate=N/A speed=13.3x    frame=10348 fps=318 q=-0.0 size=N/A time=00:07:11.59 bitrate=N/A speed=13.3x    frame=10524 fps=318 q=-0.0 size=N/A time=00:07:18.93 bitrate=N/A speed=13.3x    frame=10713 fps=319 q=-0.0 size=N/A time=00:07:26.82 bitrate=N/A speed=13.3x    frame=10896 fps=320 q=-0.0 size=N/A time=00:07:34.45 bitrate=N/A speed=13.3x    frame=11078 fps=320 q=-0.0 size=N/A time=00:07:42.04 bitrate=N/A speed=13.4x    frame=11255 fps=320 q=-0.0 size=N/A time=00:07:49.42 bitrate=N/A speed=13.4x    frame=11406 fps=320 q=-0.0 size=N/A time=00:07:55.72 bitrate=N/A speed=13.4x    frame=11569 fps=320 q=-0.0 size=N/A time=00:08:02.52 bitrate=N/A speed=13.3x    frame=11753 fps=321 q=-0.0 size=N/A time=00:08:10.19 bitrate=N/A speed=13.4x    frame=11902 fps=320 q=-0.0 size=N/A time=00:08:16.41 bitrate=N/A speed=13.4x    frame=12064 fps=320 q=-0.0 size=N/A time=00:08:23.16 bitrate=N/A speed=13.3x    frame=12233 fps=320 q=-0.0 size=N/A time=00:08:30.21 bitrate=N/A speed=13.4x    frame=12398 fps=320 q=-0.0 size=N/A time=00:08:37.09 bitrate=N/A speed=13.4x    frame=12571 fps=320 q=-0.0 size=N/A time=00:08:44.31 bitrate=N/A speed=13.4x    frame=12743 fps=320 q=-0.0 size=N/A time=00:08:51.48 bitrate=N/A speed=13.4x    frame=12907 fps=320 q=-0.0 size=N/A time=00:08:58.32 bitrate=N/A speed=13.4x    frame=13073 fps=320 q=-0.0 size=N/A time=00:09:05.25 bitrate=N/A speed=13.4x    frame=13243 fps=321 q=-0.0 size=N/A time=00:09:12.34 bitrate=N/A speed=13.4x    frame=13401 fps=320 q=-0.0 size=N/A time=00:09:18.93 bitrate=N/A speed=13.4x    frame=13563 fps=320 q=-0.0 size=N/A time=00:09:25.69 bitrate=N/A speed=13.4x    frame=13718 fps=320 q=-0.0 size=N/A time=00:09:32.15 bitrate=N/A speed=13.4x    frame=13881 fps=320 q=-0.0 size=N/A time=00:09:38.95 bitrate=N/A speed=13.4x    frame=14047 fps=320 q=-0.0 size=N/A time=00:09:45.87 bitrate=N/A speed=13.4x    frame=14203 fps=320 q=-0.0 size=N/A time=00:09:52.38 bitrate=N/A speed=13.3x    frame=14368 fps=320 q=-0.0 size=N/A time=00:09:59.30 bitrate=N/A speed=13.3x    frame=14533 fps=320 q=-0.0 size=N/A time=00:10:06.14 bitrate=N/A speed=13.3x    frame=14713 fps=320 q=-0.0 size=N/A time=00:10:13.65 bitrate=N/A speed=13.4x    frame=14877 fps=320 q=-0.0 size=N/A time=00:10:20.49 bitrate=N/A speed=13.4x    frame=15052 fps=320 q=-0.0 size=N/A time=00:10:27.79 bitrate=N/A speed=13.4x    frame=15189 fps=320 q=-0.0 size=N/A time=00:10:33.50 bitrate=N/A speed=13.3x    frame=15361 fps=320 q=-0.0 size=N/A time=00:10:40.68 bitrate=N/A speed=13.3x    frame=15538 fps=320 q=-0.0 size=N/A time=00:10:48.06 bitrate=N/A speed=13.3x    frame=15713 fps=320 q=-0.0 size=N/A time=00:10:55.36 bitrate=N/A speed=13.4x    frame=15881 fps=320 q=-0.0 size=N/A time=00:11:02.37 bitrate=N/A speed=13.4x    frame=16059 fps=320 q=-0.0 size=N/A time=00:11:09.79 bitrate=N/A speed=13.4x    frame=16227 fps=320 q=-0.0 size=N/A time=00:11:16.80 bitrate=N/A speed=13.4x    frame=16399 fps=321 q=-0.0 size=N/A time=00:11:23.97 bitrate=N/A speed=13.4x    frame=16564 fps=321 q=-0.0 size=N/A time=00:11:30.85 bitrate=N/A speed=13.4x    frame=16710 fps=320 q=-0.0 size=N/A time=00:11:36.94 bitrate=N/A speed=13.4x    frame=16892 fps=321 q=-0.0 size=N/A time=00:11:44.53 bitrate=N/A speed=13.4x    frame=17053 fps=320 q=-0.0 size=N/A time=00:11:51.25 bitrate=N/A speed=13.4x    frame=17195 fps=320 q=-0.0 size=N/A time=00:11:57.17 bitrate=N/A speed=13.4x    frame=17351 fps=320 q=-0.0 size=N/A time=00:12:03.68 bitrate=N/A speed=13.3x    frame=17502 fps=320 q=-0.0 size=N/A time=00:12:09.97 bitrate=N/A speed=13.3x    frame=17664 fps=320 q=-0.0 size=N/A time=00:12:16.73 bitrate=N/A speed=13.3x    frame=17838 fps=320 q=-0.0 size=N/A time=00:12:23.99 bitrate=N/A speed=13.3x    frame=18008 fps=320 q=-0.0 size=N/A time=00:12:31.08 bitrate=N/A speed=13.3x    frame=18177 fps=320 q=-0.0 size=N/A time=00:12:38.13 bitrate=N/A speed=13.3x    frame=18343 fps=320 q=-0.0 size=N/A time=00:12:45.05 bitrate=N/A speed=13.3x    frame=18512 fps=320 q=-0.0 size=N/A time=00:12:52.10 bitrate=N/A speed=13.3x    frame=18685 fps=320 q=-0.0 size=N/A time=00:12:59.32 bitrate=N/A speed=13.4x    frame=18864 fps=320 q=-0.0 size=N/A time=00:13:06.78 bitrate=N/A speed=13.4x    frame=19041 fps=320 q=-0.0 size=N/A time=00:13:14.16 bitrate=N/A speed=13.4x    frame=19202 fps=320 q=-0.0 size=N/A time=00:13:20.88 bitrate=N/A speed=13.4x    frame=19369 fps=320 q=-0.0 size=N/A time=00:13:27.84 bitrate=N/A speed=13.4x    frame=19553 fps=321 q=-0.0 size=N/A time=00:13:35.52 bitrate=N/A speed=13.4x    frame=19736 fps=321 q=-0.0 size=N/A time=00:13:43.15 bitrate=N/A speed=13.4x    frame=19921 fps=321 q=-0.0 size=N/A time=00:13:50.87 bitrate=N/A speed=13.4x    frame=20112 fps=322 q=-0.0 size=N/A time=00:13:58.83 bitrate=N/A speed=13.4x    frame=20292 fps=322 q=-0.0 size=N/A time=00:14:06.34 bitrate=N/A speed=13.4x    frame=20459 fps=322 q=-0.0 size=N/A time=00:14:13.31 bitrate=N/A speed=13.4x    frame=20628 fps=322 q=-0.0 size=N/A time=00:14:20.35 bitrate=N/A speed=13.4x    frame=20814 fps=322 q=-0.0 size=N/A time=00:14:28.11 bitrate=N/A speed=13.4x    frame=20995 fps=323 q=-0.0 size=N/A time=00:14:35.66 bitrate=N/A speed=13.5x    frame=21173 fps=323 q=-0.0 size=N/A time=00:14:43.09 bitrate=N/A speed=13.5x    frame=21358 fps=323 q=-0.0 size=N/A time=00:14:50.80 bitrate=N/A speed=13.5x    frame=21541 fps=323 q=-0.0 size=N/A time=00:14:58.43 bitrate=N/A speed=13.5x    frame=21723 fps=323 q=-0.0 size=N/A time=00:15:06.03 bitrate=N/A speed=13.5x    frame=21908 fps=324 q=-0.0 size=N/A time=00:15:13.74 bitrate=N/A speed=13.5x    frame=22086 fps=324 q=-0.0 size=N/A time=00:15:21.17 bitrate=N/A speed=13.5x    frame=22274 fps=324 q=-0.0 size=N/A time=00:15:29.01 bitrate=N/A speed=13.5x    frame=22450 fps=324 q=-0.0 size=N/A time=00:15:36.35 bitrate=N/A speed=13.5x    frame=22630 fps=324 q=-0.0 size=N/A time=00:15:43.85 bitrate=N/A speed=13.5x    frame=22814 fps=325 q=-0.0 size=N/A time=00:15:51.53 bitrate=N/A speed=13.5x    frame=22990 fps=325 q=-0.0 size=N/A time=00:15:58.87 bitrate=N/A speed=13.5x    frame=23169 fps=325 q=-0.0 size=N/A time=00:16:06.34 bitrate=N/A speed=13.6x    frame=23357 fps=325 q=-0.0 size=N/A time=00:16:14.18 bitrate=N/A speed=13.6x    frame=23543 fps=325 q=-0.0 size=N/A time=00:16:21.93 bitrate=N/A speed=13.6x    frame=23723 fps=326 q=-0.0 size=N/A time=00:16:29.44 bitrate=N/A speed=13.6x    frame=23901 fps=326 q=-0.0 size=N/A time=00:16:36.87 bitrate=N/A speed=13.6x    frame=24086 fps=326 q=-0.0 size=N/A time=00:16:44.58 bitrate=N/A speed=13.6x    frame=24263 fps=326 q=-0.0 size=N/A time=00:16:51.96 bitrate=N/A speed=13.6x    frame=24440 fps=326 q=-0.0 size=N/A time=00:16:59.35 bitrate=N/A speed=13.6x    frame=24618 fps=326 q=-0.0 size=N/A time=00:17:06.77 bitrate=N/A speed=13.6x    frame=24788 fps=326 q=-0.0 size=N/A time=00:17:13.86 bitrate=N/A speed=13.6x    frame=24961 fps=326 q=-0.0 size=N/A time=00:17:21.08 bitrate=N/A speed=13.6x    frame=25139 fps=327 q=-0.0 size=N/A time=00:17:28.50 bitrate=N/A speed=13.6x    frame=25312 fps=327 q=-0.0 size=N/A time=00:17:35.72 bitrate=N/A speed=13.6x    frame=25478 fps=327 q=-0.0 size=N/A time=00:17:42.64 bitrate=N/A speed=13.6x    frame=25657 fps=327 q=-0.0 size=N/A time=00:17:50.11 bitrate=N/A speed=13.6x    frame=25810 fps=327 q=-0.0 size=N/A time=00:17:56.49 bitrate=N/A speed=13.6x    frame=25970 fps=326 q=-0.0 size=N/A time=00:18:03.16 bitrate=N/A speed=13.6x    frame=26152 fps=327 q=-0.0 size=N/A time=00:18:10.75 bitrate=N/A speed=13.6x    frame=26331 fps=327 q=-0.0 size=N/A time=00:18:18.22 bitrate=N/A speed=13.6x    frame=26512 fps=327 q=-0.0 size=N/A time=00:18:25.77 bitrate=N/A speed=13.6x    frame=26698 fps=327 q=-0.0 size=N/A time=00:18:33.52 bitrate=N/A speed=13.6x    frame=26877 fps=327 q=-0.0 size=N/A time=00:18:40.99 bitrate=N/A speed=13.6x    frame=27041 fps=327 q=-0.0 size=N/A time=00:18:47.83 bitrate=N/A speed=13.6x    frame=27194 fps=327 q=-0.0 size=N/A time=00:18:54.21 bitrate=N/A speed=13.6x    frame=27357 fps=327 q=-0.0 size=N/A time=00:19:01.01 bitrate=N/A speed=13.6x    frame=27534 fps=327 q=-0.0 size=N/A time=00:19:08.39 bitrate=N/A speed=13.6x    frame=27703 fps=327 q=-0.0 size=N/A time=00:19:15.44 bitrate=N/A speed=13.6x    frame=27864 fps=327 q=-0.0 size=N/A time=00:19:22.16 bitrate=N/A speed=13.6x    frame=28013 fps=327 q=-0.0 size=N/A time=00:19:28.37 bitrate=N/A speed=13.6x    frame=28175 fps=327 q=-0.0 size=N/A time=00:19:35.13 bitrate=N/A speed=13.6x    frame=28348 fps=327 q=-0.0 size=N/A time=00:19:42.34 bitrate=N/A speed=13.6x    frame=28501 fps=326 q=-0.0 size=N/A time=00:19:48.72 bitrate=N/A speed=13.6x    frame=28669 fps=327 q=-0.0 size=N/A time=00:19:55.73 bitrate=N/A speed=13.6x    frame=28823 fps=326 q=-0.0 size=N/A time=00:20:02.15 bitrate=N/A speed=13.6x    frame=28977 fps=326 q=-0.0 size=N/A time=00:20:08.58 bitrate=N/A speed=13.6x    frame=29126 fps=326 q=-0.0 size=N/A time=00:20:14.79 bitrate=N/A speed=13.6x    frame=29283 fps=326 q=-0.0 size=N/A time=00:20:21.34 bitrate=N/A speed=13.6x    frame=29435 fps=326 q=-0.0 size=N/A time=00:20:27.68 bitrate=N/A speed=13.6x    frame=29574 fps=325 q=-0.0 size=N/A time=00:20:33.48 bitrate=N/A speed=13.6x    frame=29742 fps=325 q=-0.0 size=N/A time=00:20:40.48 bitrate=N/A speed=13.6x    frame=29906 fps=325 q=-0.0 size=N/A time=00:20:47.32 bitrate=N/A speed=13.6x    frame=30065 fps=325 q=-0.0 size=N/A time=00:20:53.96 bitrate=N/A speed=13.6x    frame=30237 fps=325 q=-0.0 size=N/A time=00:21:01.13 bitrate=N/A speed=13.6x    frame=30412 fps=325 q=-0.0 size=N/A time=00:21:08.43 bitrate=N/A speed=13.6x    frame=30596 fps=325 q=-0.0 size=N/A time=00:21:16.10 bitrate=N/A speed=13.6x    frame=30778 fps=326 q=-0.0 size=N/A time=00:21:23.69 bitrate=N/A speed=13.6x    frame=30956 fps=326 q=-0.0 size=N/A time=00:21:31.12 bitrate=N/A speed=13.6x    frame=31135 fps=326 q=-0.0 size=N/A time=00:21:38.58 bitrate=N/A speed=13.6x    frame=31318 fps=326 q=-0.0 size=N/A time=00:21:46.22 bitrate=N/A speed=13.6x    frame=31492 fps=326 q=-0.0 size=N/A time=00:21:53.47 bitrate=N/A speed=13.6x    frame=31665 fps=326 q=-0.0 size=N/A time=00:22:00.69 bitrate=N/A speed=13.6x    frame=31836 fps=326 q=-0.0 size=N/A time=00:22:07.82 bitrate=N/A speed=13.6x    frame=32003 fps=326 q=-0.0 size=N/A time=00:22:14.79 bitrate=N/A speed=13.6x    frame=32170 fps=326 q=-0.0 size=N/A time=00:22:21.75 bitrate=N/A speed=13.6x    frame=32346 fps=326 q=-0.0 size=N/A time=00:22:29.09 bitrate=N/A speed=13.6x    frame=32514 fps=326 q=-0.0 size=N/A time=00:22:36.10 bitrate=N/A speed=13.6x    frame=32671 fps=326 q=-0.0 size=N/A time=00:22:42.65 bitrate=N/A speed=13.6x    frame=32818 fps=326 q=-0.0 size=N/A time=00:22:48.78 bitrate=N/A speed=13.6x    frame=32987 fps=326 q=-0.0 size=N/A time=00:22:55.83 bitrate=N/A speed=13.6x    frame=33149 fps=326 q=-0.0 size=N/A time=00:23:02.58 bitrate=N/A speed=13.6x    frame=33317 fps=326 q=-0.0 size=N/A time=00:23:09.59 bitrate=N/A speed=13.6x    frame=33483 fps=326 q=-0.0 size=N/A time=00:23:16.52 bitrate=N/A speed=13.6x    frame=33638 fps=326 q=-0.0 size=N/A time=00:23:22.98 bitrate=N/A speed=13.6x    frame=33774 fps=325 q=-0.0 size=N/A time=00:23:28.65 bitrate=N/A speed=13.6x    frame=33902 fps=325 q=-0.0 size=N/A time=00:23:33.99 bitrate=N/A speed=13.6x    frame=34063 fps=325 q=-0.0 size=N/A time=00:23:40.71 bitrate=N/A speed=13.6x    frame=34232 fps=325 q=-0.0 size=N/A time=00:23:47.75 bitrate=N/A speed=13.6x    frame=34367 fps=325 q=-0.0 size=N/A time=00:23:53.39 bitrate=N/A speed=13.5x    frame=34505 fps=324 q=-0.0 size=N/A time=00:23:59.14 bitrate=N/A speed=13.5x    [Parsed_ssim_16 @ 000002629ae1b1c0] SSIM Y:0.994217 (22.378453) U:0.994016 (22.229838) V:0.993619 (21.951383) All:0.994084 (22.279593)
[out#0/null @ 000002628d93fe80] video:14903KiB audio:271276KiB subtitle:0KiB other streams:0KiB global headers:0KiB muxing overhead: unknown
frame=34683 fps=324 q=-0.0 Lsize=N/A time=00:24:06.57 bitrate=N/A speed=13.5x    
